<?xml version="1.0" encoding="utf-8"?>
<!-- Generator: Adobe Illustrator 28.2.0, SVG Export Plug-In . SVG Version: 6.00 Build 0)  -->
<svg version="1.1" id="Layer_1" xmlns="http://www.w3.org/2000/svg" xmlns:xlink="http://www.w3.org/1999/xlink" x="0px" y="0px"
	 viewBox="0 0 87.3 96.3" style="enable-background:new 0 0 87.3 96.3;" xml:space="preserve">
<style type="text/css">
	.st0{fill:#C55430;}
</style>
<path class="st0" d="M85.7,45.8c0,3.3-0.1,6.7-0.2,10.8c0,1.6,0.1,2.4,0.1,3.2c0.9,6-2.2,9-7.3,11.8c-13,7-25.8,14.6-38.5,22.2
	c-2.6,1.5-4.6,1.7-7.3,0.1c-9.1-5.5-18.5-10.6-27.5-16.2c-1.5-0.9-2.9-3.3-2.9-5C2,56.4,2,40,2.2,23.7c0-1.7,1.5-4,3-4.9
	C14.3,13.2,23.6,8,32.7,2.6c2.5-1.5,4.4-1.4,6.9,0C53.8,11,68.1,19.1,82.3,27.5c1.6,0.9,2.8,3.4,3.2,5.3c0.5,2.9,0.2,6,0.1,9.8
	C85.6,44.3,85.7,45.1,85.7,45.8 M74.5,55.8c-2.1,1.3-4.1,2.6-6.8,4c-0.8,0.5-1.7,1-3.2,1.8c-3.9,2.3-7.7,4.7-12.3,7.1
	c-3.9,2.2-7.8,4.3-11.6,6.8c-1.2,0.8-2.5,2.3-2.6,3.7c-0.4,3.7-0.1,7.5-0.1,12.1c8-4.9,15.2-9.2,23.1-13.7c4.2-2.6,8.4-5.1,13.3-7.8
	c9.4-5.5,9.5-5.7,7.6-18.3C79.5,53,77.4,54.3,74.5,55.8 M11.2,77.5c2.5,1.4,5.1,2.8,8.2,4.5c0-16.1,0-31.6-0.1-47
	c0-1-0.5-2.4-1.3-2.9c-4-2.5-8.2-4.8-12.8-7.4c0,15,0.2,29.1-0.1,43.2C5,72.5,6,75.6,11.2,77.5 M48.8,11.9c-3.5-2-6.8-4.1-10.4-5.9
	c-1.1-0.6-2.9-0.8-4-0.3c-3.3,1.6-6.4,3.6-10.2,5.8c15.3,8.9,30,17.4,44.7,26c3.9-2.2,7.7-4.5,12.1-7C70,24.2,59.7,18.2,48.8,11.9
	 M22.5,58.9c0,1.6,0,3.2,0,5c0.8-0.2,1.3-0.2,1.7-0.4c12.7-6.4,12.7-6.4,12.7-20.8c0-5.9,0-11.7,0-18.2c-4.4,2.5-8.1,4.2-11.2,6.6
	c-1.5,1.2-2.9,3.5-3,5.4C22.3,43.7,22.5,50.8,22.5,58.9 M29.3,64.2c-1.6,1-3.2,2-5,3.1c3.4,2,6.3,3.9,9.5,5.4
	c1.2,0.6,3.3,0.8,4.4,0.1c9.1-5,18.2-10.3,27.5-15.6c-2.9-1.7-5.6-3-8-4.8c-3-2.3-5.4-1.9-8.5,0C43,56.5,36.4,60.1,29.3,64.2
	 M67.3,45.4c-0.5-2-0.3-5-1.5-5.7c-8.2-5.2-16.7-9.9-25.6-15.1c0,4-0.1,7.2,0,10.3c0.1,1.4,0.2,3.5,1,4c8.4,5.1,17,10,26,15.2
	C67.3,51,67.3,48.7,67.3,45.4 M8,20.8c4.4,2.9,8.7,5.8,13.1,8.7c0.1,0.1,0.3-0.1,0.4-0.2c4.3-2.5,8.6-5.1,13.1-7.8
	C21.3,12.9,21.3,12.9,8,20.8 M34.3,77.2c-3.7-2.3-7.5-4.6-11.6-7.1c-0.6,15.2-0.1,16.1,11.8,20.4C34.5,86.2,34.5,82.1,34.3,77.2
	 M82.5,38.6c-0.1-1.5-0.2-3-0.3-4.7C69.7,39.9,69.3,40.7,71,53.3C81.4,49.6,82.5,48.3,82.5,38.6 M40.2,52.5c0.7,0.1,1.6,0.6,2.1,0.4
	c2.6-1.4,5.1-2.9,7.9-4.6c-3.4-1.9-6.4-3.7-10.1-5.8C40.2,46.1,40.2,48.9,40.2,52.5z"/>
</svg>
